<svg xmlns="http://www.w3.org/2000/svg">
  <symbol
    id="logo"
    viewBox="0 0 296 55"
    fill="none"
  >
    <path
      d="M268.353 3.17999C268.616 3.17999 268.885 3.18527 269.154 3.19054C281.753 3.59661 292 13.7852 292.48 26.3786C292.733 33.0129 290.344 39.2937 285.75 44.0611C281.157 48.8337 274.976 51.4653 268.353 51.4653C262.699 51.4653 257.199 49.4666 252.869 45.8436C244.11 38.508 239.39 30.3497 228.416 30.3497H227.941C216.961 30.3497 212.247 38.5133 203.487 45.8436C199.158 49.4666 193.662 51.4653 188.004 51.4653C182.382 51.4653 176.908 49.4877 172.589 45.9016C163.724 38.5343 158.951 30.3497 147.982 30.3497H147.677C136.707 30.3497 131.935 38.5291 123.07 45.9016C118.751 49.4877 113.277 51.4653 107.655 51.4653C102.033 51.4653 96.5593 49.4877 92.2402 45.9016C83.3752 38.5343 78.6026 29.4426 67.6335 29.4426H67.3276C56.3585 29.4426 51.5859 38.5343 42.7209 45.9016C38.4018 49.4877 32.9278 51.4653 27.3061 51.4653C20.6824 51.4653 14.507 48.8337 9.90843 44.0611C5.33093 39.2885 2.94198 33.0076 3.19512 26.3786C3.67501 13.7852 13.9217 3.59661 26.5203 3.19054C26.7893 3.17999 27.053 3.17999 27.3219 3.17999C33.1018 3.17999 38.6971 5.2578 43.069 9.02844C51.4013 16.2164 55.6202 24.2956 66.12 24.2956H67.7284C78.7081 24.2956 83.4227 16.132 92.1822 8.80167C96.5118 5.1787 102.007 3.17999 107.666 3.17999C113.287 3.17999 118.761 5.1576 123.08 8.74366C131.945 16.1109 136.718 24.2956 147.687 24.2956H147.993C158.962 24.2956 163.735 16.1162 172.6 8.74366C176.919 5.1576 182.393 3.17999 188.014 3.17999C193.668 3.17999 199.168 5.1787 203.498 8.80167C212.257 16.1373 216.972 24.2956 227.952 24.2956C239.485 24.2956 244.279 16.2164 252.611 9.02844C256.978 5.2578 262.568 3.17999 268.353 3.17999ZM268.353 0C261.808 0 255.48 2.35203 250.528 6.61839C248.54 8.33232 246.778 10.0621 245.08 11.7338C239.749 16.9758 235.535 21.1156 227.946 21.1156C221.006 21.1156 217.098 17.3133 211.688 12.0449C209.784 10.1939 207.817 8.27431 205.533 6.36526C200.629 2.25711 194.406 0 188.009 0C181.644 0 175.453 2.23601 170.564 6.2967C168.238 8.22685 166.24 10.1623 164.304 12.0344C158.851 17.3027 154.912 21.1156 147.993 21.1156H147.687C140.768 21.1156 136.829 17.308 131.376 12.0344C129.44 10.1623 127.442 8.22685 125.116 6.2967C120.222 2.23601 114.026 0 107.666 0C101.269 0 95.0458 2.25711 90.1466 6.35999C87.8631 8.27431 85.896 10.1886 83.9923 12.0397C78.5815 17.308 74.6738 21.1103 67.7337 21.1103H66.1252C59.6967 21.1103 56.1317 17.4715 51.2009 12.4299C49.3446 10.5314 47.425 8.56963 45.152 6.61312C40.1948 2.35203 33.8665 0 27.3219 0C27.0213 0 26.726 0.00527362 26.4254 0.0158209C12.1603 0.474626 0.563578 12.0028 0.0203955 26.2574C-0.26438 33.7617 2.44099 40.8653 7.6355 46.2655C12.8353 51.6657 19.8281 54.64 27.3219 54.64C33.6872 54.64 39.8784 52.404 44.7671 48.3433C47.3406 46.2075 49.5186 43.9925 51.628 41.8515C56.7171 36.6939 60.7356 32.6173 67.3382 32.6173H67.644C74.2519 32.6173 78.2704 36.6939 83.3541 41.8515C85.4636 43.9925 87.6469 46.2022 90.2151 48.3433C95.1038 52.404 101.295 54.64 107.66 54.64C114.026 54.64 120.217 52.404 125.105 48.3433C127.431 46.4131 129.43 44.4777 131.365 42.6056C136.818 37.332 140.758 33.5244 147.677 33.5244H147.982C154.901 33.5244 158.841 37.332 164.294 42.6056C166.229 44.4777 168.228 46.4131 170.553 48.3433C175.442 52.404 181.633 54.64 187.999 54.64C194.396 54.64 200.618 52.3829 205.518 48.28C207.801 46.3657 209.768 44.4513 211.677 42.595C217.088 37.3267 220.996 33.5244 227.936 33.5244H228.41C235.35 33.5244 239.258 37.3267 244.669 42.595C246.573 44.4461 248.54 46.3657 250.829 48.2747C255.728 52.3776 261.951 54.6347 268.347 54.6347C275.841 54.6347 282.834 51.6604 288.034 46.2602C293.228 40.86 295.934 33.7564 295.649 26.2521C295.106 11.9975 283.509 0.474626 269.249 0.0105472C268.949 0.00527362 268.648 0 268.353 0Z"
      fill="currentColor"
    />
    <path
      d="M98.1991 14.9982H109.674C112.501 14.9982 114.721 15.7734 116.135 17.1867C117.263 18.3153 117.827 19.6917 117.827 21.3898V21.4584C117.827 24.2481 116.346 25.7986 114.579 26.79C117.437 27.8869 119.204 29.5428 119.204 32.8652V32.9338C119.204 37.4533 115.533 39.7104 109.954 39.7104H98.1991V14.9982V14.9982ZM108.509 24.9864C110.908 24.9864 112.427 24.2112 112.427 22.376V22.3074C112.427 20.6831 111.156 19.7655 108.862 19.7655H103.494V24.9917H108.509V24.9864ZM109.954 34.943C112.353 34.943 113.804 34.094 113.804 32.2587V32.1902C113.804 30.529 112.57 29.5059 109.78 29.5059H103.494V34.943H109.954Z"
      fill="currentColor"
    />
    <path
      d="M254.563 27.5283V27.4598C254.563 20.4353 259.857 14.6765 267.451 14.6765C272.113 14.6765 274.903 16.2322 277.197 18.4893L273.738 22.4815C271.829 20.7517 269.888 19.6917 267.42 19.6917C263.254 19.6917 260.253 23.1512 260.253 27.3912V27.4598C260.253 31.6945 263.185 35.2278 267.42 35.2278C270.246 35.2278 271.976 34.0993 273.917 32.3326L277.376 35.829C274.834 38.5502 272.008 40.243 267.246 40.243C259.963 40.2378 254.563 34.6266 254.563 27.5283Z"
      fill="currentColor"
    />
    <path
      d="M184.665 20.0081H177.145V14.9929H197.623V20.0081H190.103V39.7104H184.665V20.0081Z"
      fill="currentColor"
    />
    <path
      d="M23.946 29.3793H16.4258V24.6753H36.9033V29.3793H29.3831V39.452H23.946V29.3793Z"
      fill="currentColor"
    />
    <path
      d="M26.8509 19.8552C28.3567 19.8552 29.5774 18.6345 29.5774 17.1287C29.5774 15.623 28.3567 14.4023 26.8509 14.4023C25.3452 14.4023 24.1245 15.623 24.1245 17.1287C24.1245 18.6345 25.3452 19.8552 26.8509 19.8552Z"
      fill="currentColor"
    />
  </symbol>
  <symbol id="icon-on" fill="none" viewBox="0 0 24 24">
    <path fill="currentColor" d="M12 24A12 12 0 100 12a12.013 12.013 0 0012 12zM10.5 7a1.5 1.5 0 113 0v9.5a1.5 1.5 0 11-3 0V7z"/>
  </symbol>

  <symbol id="ink" viewBox="0 0 104 104" fill="none">
    <path d="M69.7648 48.6412H34.2349C33.8707 48.6412 33.5874 48.9244 33.5874 49.2886V55.2778C33.5874 55.642 33.8707 55.9252 34.2349 55.9252H47.7104V74.1758C47.7104 74.54 47.9936 74.8233 48.3578 74.8233H55.7228C56.087 74.8233 56.3703 74.54 56.3703 74.1758V55.9252H69.8458C70.21 55.9252 70.4932 55.642 70.4932 55.2778V49.2886C70.4123 48.9244 70.129 48.6412 69.7648 48.6412Z" fill="currentColor" />
    <path d="M51.9997 40.1433C55.0347 40.1433 57.4627 37.6748 57.4627 34.6803C57.4627 31.6453 54.9942 29.2173 51.9997 29.2173C48.9646 29.2173 46.5366 31.6857 46.5366 34.6803C46.5366 37.7153 48.9646 40.1433 51.9997 40.1433Z" fill="currentColor" />
    <path d="M52 0C23.2685 0 0 23.2685 0 52C0 80.7315 23.2685 104 52 104C80.7315 104 104 80.7315 104 52C104 23.2685 80.7315 0 52 0ZM83.8879 83.8879C75.3494 92.4265 64.0187 97.1206 52 97.1206C39.9813 97.1206 28.6101 92.4265 20.1121 83.8879C11.5735 75.3899 6.87938 64.0591 6.87938 52C6.87938 39.9409 11.5735 28.6101 20.1121 20.1121C28.6101 11.5735 39.9409 6.87938 52 6.87938C64.0591 6.87938 75.3899 11.5735 83.8879 20.1121C92.4265 28.6506 97.1206 39.9813 97.1206 52C97.1206 64.0591 92.4265 75.3899 83.8879 83.8879Z" fill="currentColor" />
  </symbol>

  <symbol id="redeem-bitcoin" viewBox="0 0 104 111" fill="none">
    <path d="M36.1011 22.7554L40.4723 14.3018L42.3464 10.8034L38.7789 9.06421L30.2863 4.76958L32.7159 0L49.704 8.42466L40.8631 25.1999L36.1011 22.7554Z" fill="currentColor"/>
    <path fill-rule="evenodd" clip-rule="evenodd" d="M53.8189 10.0413C54.0177 8.18522 55.6836 6.84177 57.5397 7.04063C70.5905 8.43891 82.6297 14.7208 91.2417 24.626C99.8537 34.5311 104.401 47.3266 103.972 60.4451C103.543 73.5635 98.1686 86.0344 88.9276 95.3554C79.6865 104.676 67.2624 110.158 54.1481 110.7C41.0338 111.242 28.1997 106.805 18.2207 98.2788C8.24176 89.7524 1.85635 77.7677 0.345698 64.7295C-1.16495 51.6912 2.31092 38.564 10.0759 27.9817C17.8409 17.3995 29.3204 10.1452 42.2113 7.67438C44.0446 7.32297 45.8157 8.52433 46.1671 10.3577C46.5185 12.191 45.3172 13.9621 43.4838 14.3135C32.2688 16.4631 22.2816 22.7744 15.526 31.9809C8.77051 41.1875 5.7465 52.6081 7.06076 63.9514C8.37503 75.2947 13.9303 85.7214 22.612 93.1393C31.2937 100.557 42.4595 104.418 53.8689 103.946C65.2783 103.474 76.0873 98.7053 84.127 90.596C92.1667 82.4867 96.8424 71.6371 97.2158 60.224C97.5892 48.811 93.6328 37.6789 86.1403 29.0614C78.6479 20.4439 68.1737 14.9787 56.8195 13.7622C54.9634 13.5633 53.62 11.8974 53.8189 10.0413Z" fill="currentColor" />
    <path d="M58.6052 63.1525C58.6026 67.0889 51.8523 66.6529 49.6971 66.6605L49.6929 59.6605C51.8481 59.6529 58.5991 59.0291 58.6052 63.1525ZM49.6992 50.1224L49.6905 56.4633C51.4895 56.4689 57.1177 56.8819 57.1111 53.2884C57.1225 49.5391 51.4937 50.1101 49.6992 50.1224ZM80.08 58.7437C80.0875 74.2576 67.4998 86.8384 51.9993 86.8246C36.4854 86.833 23.9098 74.2638 23.9201 58.7455C23.9126 43.2316 36.4825 30.6553 52.0008 30.6647C67.4969 30.6607 80.0725 43.2299 80.08 58.7437ZM55.3389 46.4834L55.3424 41.2601L52.163 41.2582L52.1641 46.3479C51.3314 46.3474 50.4854 46.3691 49.6349 46.3731L49.6293 41.2656L46.45 41.2637L46.4465 46.4869C45.7518 46.5087 45.0884 46.5039 44.4293 46.5169L44.4249 46.499L40.0343 46.4964L40.0276 49.885C40.0276 49.885 42.3833 49.8464 42.3342 49.8775C43.6211 49.8783 44.0348 50.6266 44.159 51.2768L44.164 57.217L44.155 57.2571L44.1495 65.584C44.1003 65.9936 43.8638 66.6391 42.9555 66.6386C43 66.6653 40.6489 66.6461 40.6489 66.6461L40.0229 70.4351L44.1463 70.4287C44.9211 70.4247 45.6647 70.4475 46.4217 70.4479L46.4316 75.7246L49.611 75.7265L49.6144 70.5033C50.4872 70.5127 51.3243 70.531 52.157 70.5315L52.1491 75.737L55.3285 75.7389L55.3231 70.48C60.6578 70.1715 64.4081 68.8201 64.8611 63.8064C65.2378 59.7768 63.3287 57.9633 60.3102 57.2401C62.1587 56.3061 63.2998 54.6592 63.03 51.9072C62.6852 48.0953 59.4398 46.8421 55.3389 46.4834Z" fill="currentColor" />
  </symbol>

  <symbol id="circle" viewBox="0 0 10 10" fill="none">
    <circle cx="5" cy="5" r="4" fill="currentColor" />
  </symbol>

  <symbol id="error" viewBox="0 0 10 10" fill="none">
    <path d="M8.35944 7.28843L5.53527 1.89509C5.48408 1.79742 5.40715 1.71562 5.3128 1.65854C5.21845 1.60146 5.11028 1.57129 5.00001 1.57129C4.88974 1.57129 4.78157 1.60146 4.68722 1.65854C4.59287 1.71562 4.51594 1.79742 4.46476 1.89509L1.64028 7.28843C1.59203 7.38054 1.56837 7.48354 1.57158 7.58747C1.57479 7.6914 1.60476 7.79275 1.65859 7.8817C1.71243 7.97066 1.78831 8.04422 1.87889 8.09527C1.96948 8.14633 2.0717 8.17314 2.17568 8.17312H7.82404C7.92802 8.17314 8.03024 8.14633 8.12083 8.09527C8.21141 8.04422 8.28729 7.97066 8.34113 7.8817C8.39496 7.79275 8.42494 7.6914 8.42814 7.58747C8.43135 7.48354 8.40769 7.38054 8.35944 7.28843ZM4.69771 3.79047C4.69771 3.71033 4.72955 3.63348 4.78621 3.57682C4.84287 3.52015 4.91973 3.48832 4.99986 3.48832C5.08 3.48832 5.15685 3.52015 5.21351 3.57682C5.27017 3.63348 5.30201 3.71033 5.30201 3.79047V5.60335C5.30201 5.68349 5.27017 5.76034 5.21351 5.817C5.15685 5.87367 5.08 5.9055 4.99986 5.9055C4.91973 5.9055 4.84287 5.87367 4.78621 5.817C4.72955 5.76034 4.69771 5.68349 4.69771 5.60335V3.79047ZM5.01497 7.26819H5.00651C4.88735 7.26781 4.77296 7.22137 4.68725 7.13859C4.60154 7.05581 4.55116 6.9431 4.54664 6.82403C4.54446 6.76481 4.55411 6.70575 4.57501 6.65031C4.59592 6.59486 4.62767 6.54413 4.6684 6.50109C4.70913 6.45805 4.75803 6.42356 4.81225 6.39964C4.86646 6.37571 4.9249 6.36283 4.98415 6.36175H4.99261C5.11174 6.36189 5.2262 6.4081 5.31203 6.49072C5.39786 6.57334 5.4484 6.68596 5.45308 6.805C5.45543 6.86435 5.44588 6.92357 5.42501 6.97918C5.40414 7.0348 5.37236 7.08567 5.33154 7.12883C5.29072 7.17198 5.24169 7.20654 5.18733 7.23047C5.13296 7.25441 5.07436 7.26723 5.01497 7.26819Z" fill="currentColor" />
  </symbol>

  <symbol id="sign" viewBox="0 0 10 10" fill="none">
    <path fill-rule="evenodd" clip-rule="evenodd" d="M8.33648 2.5304C8.30674 2.4263 8.25667 2.32912 8.18915 2.24449C8.12164 2.15985 8.03803 2.08943 7.94315 2.03729C7.91456 2.02214 7.11416 1.58879 7.11416 1.58879C7.09767 1.57977 7.07956 1.57411 7.06087 1.5721C7.04218 1.5701 7.02328 1.5718 7.00525 1.57711C6.98723 1.58242 6.97042 1.59124 6.9558 1.60305C6.94118 1.61486 6.92904 1.62944 6.92006 1.64596L4.64064 5.7783C4.62253 5.81159 4.61839 5.8507 4.62911 5.88704C4.63983 5.92339 4.66454 5.95398 4.69781 5.97211L5.40645 6.36231C5.4275 6.37411 5.45122 6.38031 5.47534 6.38032C5.50098 6.38036 5.52615 6.37351 5.54823 6.36049C5.57031 6.34746 5.58848 6.32874 5.60083 6.30628L7.6733 2.54155C7.72986 2.575 7.77117 2.62917 7.78846 2.69257C7.80575 2.75597 7.79766 2.82361 7.76591 2.88114L6.7254 4.77123C6.68896 4.83762 6.68035 4.91575 6.70147 4.98848C6.72258 5.06121 6.7717 5.12259 6.83802 5.15914C6.90451 5.19502 6.98243 5.20339 7.05502 5.18244C7.12761 5.16148 7.18908 5.11288 7.22622 5.04708L8.26674 3.15728C8.31918 3.06257 8.35234 2.95841 8.36431 2.85082C8.37628 2.74322 8.36682 2.63432 8.33648 2.5304ZM4.06041 7.22714C4.0068 7.17355 3.93411 7.14345 3.85831 7.14345C3.78251 7.14345 3.70981 7.17355 3.65621 7.22714L3.28659 7.59675L2.91698 7.22714C2.86658 7.17669 2.79914 7.1469 2.72789 7.14362C2.65665 7.14034 2.58676 7.16381 2.53193 7.20942L1.67436 7.92406C1.64546 7.9481 1.62158 7.9776 1.60409 8.01088C1.58661 8.04416 1.57586 8.08056 1.57246 8.118C1.56906 8.15544 1.57308 8.19318 1.58429 8.22906C1.5955 8.26495 1.61367 8.29827 1.63777 8.32712C1.68689 8.38443 1.75646 8.42031 1.83164 8.42709C1.90682 8.43387 1.98168 8.41102 2.04026 8.36342L2.69773 7.81572L3.08392 8.20305C3.13753 8.25664 3.21022 8.28675 3.28602 8.28675C3.36182 8.28675 3.43452 8.25664 3.48812 8.20305L3.85774 7.83344L4.08442 8.06013C4.11079 8.08743 4.14233 8.10921 4.17721 8.12419C4.21208 8.13917 4.24959 8.14705 4.28755 8.14738C4.32551 8.14771 4.36315 8.14048 4.39828 8.12611C4.43341 8.11174 4.46533 8.09051 4.49217 8.06367C4.51901 8.03683 4.54023 8.00491 4.5546 7.96978C4.56898 7.93465 4.57621 7.89701 4.57588 7.85906C4.57555 7.8211 4.56766 7.78359 4.55268 7.74871C4.5377 7.71384 4.51592 7.68229 4.48862 7.65593L4.06041 7.22714ZM4.57622 6.19451L5.28486 6.5847H5.28457C5.30671 6.59691 5.32522 6.61478 5.3382 6.63648C5.35118 6.65818 5.35818 6.68293 5.35847 6.70821C5.35876 6.7335 5.35233 6.75841 5.33985 6.7804C5.32737 6.80239 5.30928 6.82068 5.28743 6.8334L4.60766 7.22873C4.58632 7.24114 4.56213 7.24781 4.53745 7.24809C4.51277 7.24838 4.48843 7.24226 4.46681 7.23034C4.4452 7.21843 4.42703 7.20112 4.4141 7.18009C4.40116 7.15907 4.39388 7.13506 4.39298 7.11039L4.3644 6.32486C4.36348 6.29959 4.36929 6.27453 4.38122 6.25223C4.39315 6.22994 4.41079 6.21121 4.43232 6.19796C4.45386 6.18471 4.47852 6.1774 4.5038 6.1768C4.52908 6.17619 4.55407 6.1823 4.57622 6.19451Z" fill="currentColor" />
  </symbol>

  <symbol id="dropdown-arrow" viewBox="0 0 14 14" fill="none">
    <path fill-rule="evenodd" clip-rule="evenodd" d="M7 13C10.3137 13 13 10.3137 13 7C13 3.68629 10.3137 1 7 1C3.68629 1 1 3.68629 1 7C1 10.3137 3.68629 13 7 13ZM10.3464 6.63152L7.60129 9.3761C7.44162 9.53485 7.22562 9.62396 7.00046 9.62396C6.7753 9.62396 6.55929 9.53485 6.39962 9.3761L3.65358 6.63152C3.53961 6.51755 3.47559 6.36297 3.47559 6.20179C3.47559 6.12199 3.49131 6.04296 3.52185 5.96923C3.55239 5.8955 3.59715 5.8285 3.65358 5.77207C3.71002 5.71564 3.77701 5.67088 3.85074 5.64034C3.92447 5.60979 4.0035 5.59408 4.08331 5.59408C4.24448 5.59408 4.39906 5.6581 4.51303 5.77207L6.91393 8.17346C6.93685 8.19608 6.96777 8.20877 6.99997 8.20877C7.03218 8.20877 7.06309 8.19608 7.08601 8.17346L9.48692 5.77207C9.54335 5.71564 9.61034 5.67088 9.68408 5.64034C9.75781 5.60979 9.83683 5.59408 9.91664 5.59408C9.99645 5.59408 10.0755 5.60979 10.1492 5.64034C10.2229 5.67088 10.2899 5.71564 10.3464 5.77207C10.4028 5.8285 10.4476 5.8955 10.4781 5.96923C10.5086 6.04296 10.5244 6.12199 10.5244 6.20179C10.5244 6.2816 10.5086 6.36063 10.4781 6.43436C10.4476 6.50809 10.4028 6.57508 10.3464 6.63152Z" fill="currentColor" />
  </symbol>

  <symbol id="browser" viewBox="0 0 14 15" fill="none">
    <path d="M14 2.54878C14 2.00541 13.8156 1.48429 13.4874 1.10007C13.1592 0.715853 12.7141 0.5 12.25 0.5H1.75C1.28587 0.5 0.840752 0.715853 0.512563 1.10007C0.184374 1.48429 0 2.00541 0 2.54878L0 12.4512C0 12.9946 0.184374 13.5157 0.512563 13.8999C0.840752 14.2841 1.28587 14.5 1.75 14.5H12.25C12.7141 14.5 13.1592 14.2841 13.4874 13.8999C13.8156 13.5157 14 12.9946 14 12.4512V2.54878ZM5.6315 1.86585C5.68016 1.76249 5.75162 1.67631 5.83842 1.61628C5.92522 1.55626 6.02419 1.5246 6.125 1.5246C6.22581 1.5246 6.32478 1.55626 6.41158 1.61628C6.49838 1.67631 6.56984 1.76249 6.6185 1.86585C6.67462 1.96788 6.7057 2.08601 6.70833 2.20732C6.7057 2.32863 6.67462 2.44676 6.6185 2.54878C6.56984 2.65214 6.49838 2.73833 6.41158 2.79835C6.32478 2.85837 6.22581 2.89004 6.125 2.89004C6.02419 2.89004 5.92522 2.85837 5.83842 2.79835C5.75162 2.73833 5.68016 2.65214 5.6315 2.54878C5.57538 2.44676 5.5443 2.32863 5.54167 2.20732C5.5443 2.08601 5.57538 1.96788 5.6315 1.86585V1.86585ZM3.58983 1.86585C3.6385 1.76249 3.70995 1.67631 3.79676 1.61628C3.88356 1.55626 3.98252 1.5246 4.08333 1.5246C4.18414 1.5246 4.28311 1.55626 4.36991 1.61628C4.45671 1.67631 4.52817 1.76249 4.57683 1.86585C4.63295 1.96788 4.66403 2.08601 4.66667 2.20732C4.66403 2.32863 4.63295 2.44676 4.57683 2.54878C4.52817 2.65214 4.45671 2.73833 4.36991 2.79835C4.28311 2.85837 4.18414 2.89004 4.08333 2.89004C3.98252 2.89004 3.88356 2.85837 3.79676 2.79835C3.70995 2.73833 3.6385 2.65214 3.58983 2.54878C3.53371 2.44676 3.50264 2.32863 3.5 2.20732C3.50264 2.08601 3.53371 1.96788 3.58983 1.86585V1.86585ZM1.512 1.92868C1.55775 1.80882 1.63205 1.70693 1.72599 1.63523C1.81992 1.56353 1.92953 1.52505 2.04167 1.52439C2.14226 1.52575 2.24078 1.558 2.32739 1.61793C2.41399 1.67785 2.48564 1.76334 2.53517 1.86585C2.59129 1.96788 2.62236 2.08601 2.625 2.20732C2.62236 2.32863 2.59129 2.44676 2.53517 2.54878C2.4865 2.65214 2.41505 2.73833 2.32824 2.79835C2.24144 2.85837 2.14248 2.89004 2.04167 2.89004C1.94086 2.89004 1.84189 2.85837 1.75509 2.79835C1.66829 2.73833 1.59683 2.65214 1.54817 2.54878C1.49205 2.44676 1.46097 2.32863 1.45833 2.20732C1.45887 2.111 1.47718 2.01595 1.512 1.92868V1.92868ZM12.8333 12.4512C12.8333 12.6323 12.7719 12.806 12.6625 12.9341C12.5531 13.0622 12.4047 13.1341 12.25 13.1341H1.75C1.59529 13.1341 1.44692 13.0622 1.33752 12.9341C1.22812 12.806 1.16667 12.6323 1.16667 12.4512V4.08537C1.16667 4.04009 1.18203 3.99666 1.20938 3.96464C1.23673 3.93262 1.27382 3.91463 1.3125 3.91463H12.6875C12.7262 3.91463 12.7633 3.93262 12.7906 3.96464C12.818 3.99666 12.8333 4.04009 12.8333 4.08537V12.4512Z" fill="currentColor" />
  </symbol>

  <symbol id="bitcoin" viewBox="0 0 14 15" fill="none">
    <path d="M8.64659 8.59884C8.64594 9.58012 6.96317 9.47143 6.42591 9.47333L6.42484 7.72832C6.96211 7.72643 8.64505 7.57092 8.64659 8.59884ZM6.42642 5.35059L6.42426 6.9313C6.87272 6.93268 8.27576 7.03566 8.27413 6.13984C8.27697 5.20518 6.87377 5.34753 6.42642 5.35059ZM14 7.49978C14.0019 11.3672 10.8639 14.5034 6.99981 14.5C3.13238 14.5021 -0.00256017 11.3688 1.56889e-06 7.50022C-0.00187768 3.63279 3.13166 0.497669 7.0002 0.500001C10.8632 0.499 13.9981 3.63235 14 7.49978ZM7.83235 4.44341L7.83321 3.14132L7.04063 3.14084L7.0409 4.40963C6.83332 4.40951 6.62241 4.41493 6.41038 4.41591L6.40901 3.14268L5.61643 3.1422L5.61557 4.4443C5.4424 4.44974 5.277 4.44853 5.11271 4.45176L5.1116 4.44732L4.01709 4.44666L4.01542 5.29141C4.01542 5.29141 4.60264 5.28178 4.59043 5.28954C4.91123 5.28973 5.01434 5.47628 5.04532 5.63837L5.04656 7.11918L5.04433 7.12917L5.04296 9.20497C5.03068 9.30709 4.97174 9.46801 4.74529 9.46787C4.75639 9.47454 4.17028 9.46975 4.17028 9.46975L4.01425 10.4143L5.04216 10.4127C5.23531 10.4117 5.42068 10.4174 5.60939 10.4175L5.61185 11.7329L6.40443 11.7334L6.40529 10.4313C6.62286 10.4336 6.83155 10.4382 7.03913 10.4383L7.03716 11.736L7.82974 11.7365L7.82838 10.4255C9.15828 10.3486 10.0932 10.0117 10.2061 8.76184C10.3 7.7573 9.82411 7.30522 9.07161 7.12494C9.53244 6.89211 9.81688 6.48156 9.74962 5.7955C9.66367 4.84525 8.85465 4.53283 7.83235 4.44341Z" fill="currentColor" />
  </symbol>

  <symbol id="eth" viewBox="0 0 14 14" fill="none">
    <path fill-rule="evenodd" clip-rule="evenodd" d="M7 14C10.866 14 14 10.866 14 7C14 3.13401 10.866 0 7 0C3.13401 0 0 3.13401 0 7C0 10.866 3.13401 14 7 14ZM6.99689 8.83586L3.8501 6.97565L3.85033 6.97527L3.85 6.97508L3.85061 6.9748L6.99689 1.75L6.99757 1.93387V1.75406L10.144 6.975L10.1442 6.97508L10.1441 6.97513L10.1444 6.97559L6.99757 8.8358V8.83483L6.99689 8.83523L6.99689 8.83586ZM6.99679 12.0068L6.99658 12.0065L6.99637 12.0068V12.0062L3.85 7.57222L6.99658 9.43114L10.1455 7.57222L6.99679 12.0062V12.0068Z" fill="currentColor" />
  </symbol>

  <symbol id="time" viewBox="0 0 15 15" fill="none">
    <path fill-rule="evenodd" clip-rule="evenodd" d="M11.3883 12.5L9.28084 8.1535C9.1814 7.95 9.12972 7.72649 9.12972 7.5C9.12972 7.27351 9.1814 7.05 9.28084 6.8465L11.3883 2.5L11.6265 1.98729C11.7321 1.76004 11.5661 1.5 11.3155 1.5H3.39014C3.13956 1.5 2.97363 1.76004 3.07919 1.98729L3.31734 2.5L5.42484 6.8465C5.52428 7.05 5.57597 7.27351 5.57597 7.5C5.57597 7.72649 5.52428 7.95 5.42484 8.1535L3.31734 12.5L3.07919 13.0127C2.97363 13.24 3.13956 13.5 3.39014 13.5H11.3155C11.5661 13.5 11.7321 13.24 11.6265 13.0127L11.3883 12.5ZM7.46097 7.01563C7.49826 6.99478 7.52958 6.96472 7.55195 6.92832L8.48992 5.40399C8.5602 5.28977 8.47803 5.14272 8.34392 5.14272H6.33398C6.19988 5.14272 6.1177 5.28977 6.18798 5.40399L7.12595 6.92832C7.14832 6.96472 7.17964 6.99478 7.21693 7.01563C7.25422 7.03649 7.29623 7.04744 7.33895 7.04744C7.38167 7.04744 7.42368 7.03649 7.46097 7.01563ZM7.12599 8.5721C7.14996 8.53785 7.18184 8.50989 7.21892 8.49059C7.256 8.47128 7.29719 8.4612 7.33899 8.4612C7.38079 8.4612 7.42198 8.47128 7.45906 8.49059C7.49614 8.50989 7.52802 8.53785 7.55199 8.5721L9.30199 11.4156C9.32543 11.4535 9.33831 11.497 9.33931 11.5415C9.3403 11.5861 9.32937 11.6301 9.30765 11.669C9.28593 11.7079 9.2542 11.7403 9.21576 11.7628C9.17731 11.7853 9.13355 11.7972 9.08899 11.7971H5.58899C5.54443 11.7972 5.50066 11.7853 5.46222 11.7628C5.42377 11.7403 5.39205 11.7079 5.37033 11.669C5.34861 11.6301 5.33768 11.5861 5.33867 11.5415C5.33967 11.497 5.35255 11.4535 5.37599 11.4156L7.12599 8.5721Z" fill="currentColor" />
  </symbol>

  <symbol id="warning" viewBox="0 0 15 15" fill="none">
    <path d="M13.4261 11.505L8.48384 2.06666C8.39426 1.89573 8.25963 1.75257 8.09452 1.65269C7.92941 1.5528 7.74011 1.5 7.54714 1.5C7.35417 1.5 7.16487 1.5528 6.99976 1.65269C6.83465 1.75257 6.70001 1.89573 6.61044 2.06666L1.66761 11.505C1.58317 11.6662 1.54176 11.8464 1.54738 12.0283C1.55299 12.2102 1.60544 12.3876 1.69966 12.5432C1.79387 12.6989 1.92666 12.8276 2.08518 12.917C2.24371 13.0063 2.4226 13.0532 2.60457 13.0532H12.4892C12.6711 13.0532 12.85 13.0063 13.0086 12.917C13.1671 12.8276 13.2999 12.6989 13.3941 12.5432C13.4883 12.3876 13.5408 12.2102 13.5464 12.0283C13.552 11.8464 13.5106 11.6662 13.4261 11.505V11.505ZM7.01812 5.38356C7.01812 5.24333 7.07382 5.10883 7.17299 5.00967C7.27215 4.91051 7.40664 4.8548 7.54688 4.8548C7.68711 4.8548 7.8216 4.91051 7.92076 5.00967C8.01993 5.10883 8.07563 5.24333 8.07563 5.38356V8.55611C8.07563 8.69635 8.01993 8.83084 7.92076 8.93C7.8216 9.02917 7.68711 9.08487 7.54688 9.08487C7.40664 9.08487 7.27215 9.02917 7.17299 8.93C7.07382 8.83084 7.01812 8.69635 7.01812 8.55611V5.38356ZM7.57331 11.4696H7.55851C7.34999 11.4689 7.1498 11.3876 6.99981 11.2428C6.84982 11.0979 6.76165 10.9007 6.75374 10.6923C6.74993 10.5887 6.76681 10.4853 6.80339 10.3883C6.83998 10.2912 6.89553 10.2025 6.96682 10.1272C7.0381 10.0518 7.12368 9.99148 7.21855 9.94961C7.31343 9.90774 7.41569 9.8852 7.51938 9.8833H7.53418C7.74267 9.88355 7.94297 9.96443 8.09317 10.109C8.24337 10.2536 8.33182 10.4507 8.34001 10.659C8.34411 10.7629 8.32741 10.8665 8.29088 10.9638C8.25436 11.0611 8.19874 11.1502 8.12731 11.2257C8.05588 11.3012 7.97008 11.3617 7.87494 11.4036C7.7798 11.4455 7.67725 11.4679 7.57331 11.4696V11.4696Z" fill="currentColor"/>
  </symbol>

  <symbol id="close-circle" viewBox="0 0 18 18" fill="none">
    <path d="M14.4522 3.54262C13.3731 2.46448 11.9985 1.73048 10.5023 1.43341C9.00603 1.13634 7.45532 1.28953 6.04613 1.87361C4.63695 2.4577 3.43257 3.44646 2.58523 4.71491C1.7379 5.98337 1.28564 7.47456 1.28564 8.99999C1.28564 10.5254 1.7379 12.0166 2.58523 13.2851C3.43257 14.5535 4.63695 15.5423 6.04613 16.1264C7.45532 16.7105 9.00603 16.8636 10.5023 16.5666C11.9985 16.2695 13.3731 15.5355 14.4522 14.4574C15.8973 13.0088 16.7089 11.0462 16.7089 8.99999C16.7089 6.95383 15.8973 4.99121 14.4522 3.54262ZM12.0216 11.109C12.1314 11.2313 12.1902 11.391 12.186 11.5553C12.1818 11.7196 12.1148 11.876 11.9988 11.9925C11.8828 12.109 11.7267 12.1766 11.5624 12.1815C11.3981 12.1865 11.2382 12.1284 11.1154 12.0191L9.1151 10.0188C9.08477 9.98885 9.04387 9.97207 9.00126 9.97207C8.95865 9.97207 8.91775 9.98885 8.88742 10.0188L6.88778 12.0191C6.76561 12.1369 6.60248 12.2028 6.43273 12.2028C6.26298 12.2028 6.09985 12.1369 5.97768 12.0191C5.91788 11.9593 5.87044 11.8884 5.83807 11.8103C5.8057 11.7322 5.78904 11.6485 5.78904 11.564C5.78904 11.4795 5.8057 11.3958 5.83807 11.3177C5.87044 11.2396 5.91788 11.1687 5.97768 11.109L7.97796 9.10933C7.99292 9.09445 8.00479 9.07676 8.01288 9.05728C8.02098 9.0378 8.02515 9.01691 8.02515 8.99581C8.02515 8.97471 8.02098 8.95382 8.01288 8.93434C8.00479 8.91486 7.99292 8.89717 7.97796 8.88229L5.97768 6.882C5.8666 6.75985 5.80675 6.59966 5.81052 6.4346C5.81429 6.26954 5.88139 6.11225 5.99793 5.99529C6.11447 5.87834 6.27152 5.81068 6.43657 5.80633C6.60162 5.80197 6.76202 5.86126 6.88456 5.97191L8.8842 7.97219C8.89914 7.98717 8.91688 7.99905 8.93642 8.00715C8.95595 8.01526 8.9769 8.01943 8.99805 8.01943C9.0192 8.01943 9.04014 8.01526 9.05967 8.00715C9.07921 7.99905 9.09695 7.98717 9.11189 7.97219L11.1122 5.97191C11.2329 5.85131 11.3965 5.78359 11.5671 5.78365C11.7377 5.78371 11.9013 5.85154 12.0219 5.97223C12.1426 6.09291 12.2103 6.25657 12.2102 6.42718C12.2101 6.5978 12.1423 6.7614 12.0216 6.882L10.0213 8.88229C9.9913 8.91243 9.97443 8.95325 9.97443 8.99581C9.97443 9.03837 9.9913 9.07919 10.0213 9.10933L12.0216 11.109Z" fill="currentColor" />
  </symbol>

  <symbol id="check" viewBox="0 0 16 16" fill="none">
    <path fill-rule="evenodd" clip-rule="evenodd" d="M8.00021 14.8572C11.7873 14.8572 14.8574 11.7871 14.8574 8.00003C14.8574 4.21293 11.7873 1.14288 8.00021 1.14288C4.21311 1.14288 1.14307 4.21293 1.14307 8.00003C1.14307 11.7871 4.21311 14.8572 8.00021 14.8572ZM7.22474 10.5728L4.99948 8.29327C4.768 8.05615 4.77258 7.67627 5.0097 7.4448C5.24682 7.21333 5.62669 7.2179 5.85817 7.45502L7.22474 8.85493L10.1423 5.86617C10.3738 5.62905 10.7537 5.62448 10.9908 5.85595C11.2279 6.08742 11.2325 6.4673 11.001 6.70442L7.22474 10.5728Z" fill="currentColor" />
  </symbol>

  <symbol id="arrow-right-currency" viewBox="0 0 22 38" fill="none">
    <path d="M8.24951 26.1248L16.2681 18.1059L8.24951 10.1248" stroke="currentColor"/>
  </symbol>

  <symbol id="question" viewBox="0 0 8 9" fill="none">
    <path d="M4 0.5C3.20888 0.5 2.43552 0.734596 1.77772 1.17412C1.11992 1.61365 0.607234 2.23836 0.304484 2.96927C0.00173315 3.70017 -0.0774802 4.50444 0.0768607 5.28036C0.231202 6.05628 0.612164 6.76902 1.17157 7.32843C1.73098 7.88784 2.44372 8.2688 3.21964 8.42314C3.99556 8.57748 4.79983 8.49827 5.53074 8.19552C6.26164 7.89277 6.88635 7.38008 7.32588 6.72228C7.7654 6.06448 8 5.29112 8 4.5C7.99885 3.43949 7.57706 2.42274 6.82716 1.67284C6.07726 0.922943 5.06052 0.501147 4 0.5ZM4 6.83333C3.90111 6.83333 3.80444 6.80401 3.72222 6.74907C3.63999 6.69413 3.57591 6.61604 3.53806 6.52467C3.50022 6.43331 3.49032 6.33278 3.50961 6.23579C3.5289 6.1388 3.57652 6.04971 3.64645 5.97978C3.71637 5.90985 3.80547 5.86223 3.90246 5.84294C3.99945 5.82365 4.09998 5.83355 4.19134 5.87139C4.28271 5.90924 4.3608 5.97332 4.41574 6.05555C4.47068 6.13777 4.5 6.23444 4.5 6.33333C4.5 6.46594 4.44732 6.59312 4.35355 6.68689C4.25979 6.78065 4.13261 6.83333 4 6.83333ZM4.53333 4.80667C4.47387 4.83262 4.42326 4.87537 4.38774 4.92966C4.35221 4.98396 4.3333 5.04745 4.33333 5.11233C4.33333 5.20074 4.29822 5.28552 4.2357 5.34803C4.17319 5.41055 4.08841 5.44567 4 5.44567C3.9116 5.44567 3.82681 5.41055 3.7643 5.34803C3.70179 5.28552 3.66667 5.20074 3.66667 5.11233C3.66664 4.91773 3.72339 4.72735 3.82997 4.56452C3.93654 4.4017 4.08831 4.27351 4.26667 4.19567C4.37684 4.14758 4.47196 4.07061 4.54196 3.97288C4.61197 3.87516 4.65424 3.76033 4.66432 3.64055C4.6744 3.52076 4.6519 3.40048 4.59921 3.29244C4.54652 3.18439 4.4656 3.0926 4.36501 3.02679C4.26442 2.96097 4.1479 2.92358 4.0278 2.91857C3.9077 2.91356 3.78847 2.94111 3.68275 2.99832C3.57702 3.05552 3.48873 3.14025 3.42722 3.24353C3.36571 3.3468 3.33327 3.46479 3.33333 3.585C3.33333 3.67341 3.29822 3.75819 3.2357 3.8207C3.17319 3.88321 3.08841 3.91833 3 3.91833C2.9116 3.91833 2.82681 3.88321 2.7643 3.8207C2.70179 3.75819 2.66667 3.67341 2.66667 3.585C2.66666 3.34461 2.73165 3.1087 2.85475 2.90222C2.97784 2.69574 3.15447 2.52638 3.36593 2.41206C3.5774 2.29775 3.81584 2.24272 4.05601 2.25282C4.29619 2.26292 4.52917 2.33776 4.73029 2.46943C4.93141 2.60109 5.0932 2.78468 5.19853 3.00076C5.30386 3.21685 5.34881 3.45739 5.32863 3.69692C5.30844 3.93646 5.22388 4.16609 5.08388 4.3615C4.94388 4.55692 4.75365 4.71051 4.53333 4.80667Z" fill="currentColor" />
  </symbol>

</svg>
